<?xml version="1.0"?>
<svg version="1.1" xmlns="http://www.w3.org/2000/svg" width="400" height="138" style=""><path fill="#" d="M17.501953125,85.201171875q0-7.0546875,0.3896484375-13.9453125t0.9638671875-13.9453125q0.1640625-1.845703125,0.205078125-3.568359375t0.3896484375-3.0146484375t1.23046875-2.05078125t2.7275390625-0.7587890625q1.189453125,0,2.4814453125,0.41015625t1.2919921875,1.927734375q0,5.701171875-0.4716796875,11.2177734375t-0.6357421875,10.9716796875q4.470703125-5.044921875,9.556640625-9.4130859375t10.787109375-8.6337890625q0.8203125-0.57421875,2.091796875-0.615234375q0.41015625,0,0.7177734375,0.041015625t0.6357421875,0.123046875q0.41015625,0.1640625,0.8408203125,0.3896484375t0.4306640625,0.6357421875q0,0.328125-0.369140625,0.57421875q-4.265625,3.4453125-8.4287109375,7.013671875t-7.9365234375,7.62890625q0.4921875,0.943359375,0.8408203125,1.763671875t0.7587890625,1.763671875q3.4453125,8.162109375,5.8857421875,16.7138671875t5.1884765625,16.9599609375q0.24609375,0.943359375,0.7177734375,1.9482421875t0.8818359375,2.009765625t0.7177734375,1.88671875t0.3076171875,1.4560546875q0,0.73828125-0.4716796875,1.1689453125t-1.0869140625,0.6767578125t-1.3330078125,0.328125t-1.3330078125,0.08203125q-1.435546875,0-2.5634765625-0.41015625t-1.7841796875-1.845703125q-3.03515625-9.6796875-5.8447265625-19.359375t-5.6806640625-19.5234375q-0.943359375,0.943359375-1.88671875,2.3583984375t-1.72265625,2.6044921875q0,6.15234375,0.287109375,12.22265625t0.984375,12.22265625q0.1640625,1.763671875,0.5537109375,3.52734375t0.3896484375,3.609375q0,1.353515625-1.39453125,1.88671875t-3.076171875,0.533203125q-1.845703125,0-2.7685546875-0.369140625t-1.3125-0.9638671875t-0.4716796875-1.3125t-0.24609375-1.3740234375q-0.943359375-6.48046875-1.189453125-12.8173828125t-0.24609375-12.7353515625z M59.52943359375,95.701171875q0-2.7890625,0.7587890625-5.373046875t2.2763671875-4.6142578125t3.7939453125-3.240234375t5.2705078125-1.2099609375q1.845703125,0,4.0810546875,0.5537109375t4.2041015625,1.640625t3.28125,2.7685546875t1.3125,3.85546875q0,1.025390625-0.3486328125,1.55859375t-1.4150390625,0.533203125l-0.451171875-0.08203125q1.189453125,3.19921875,2.05078125,6.5625t1.681640625,6.7265625q0.328125,0.65625,0.4921875,1.1689453125t0.1640625,1.0048828125q0,0.65625-0.369140625,1.0869140625t-0.9638671875,0.6357421875t-1.23046875,0.287109375t-1.1279296875,0.08203125q-1.763671875,0-2.6455078125-0.615234375t-1.271484375-1.681640625t-0.4716796875-2.3994140625t-0.328125-2.6865234375q-0.4921875,1.599609375-1.2919921875,3.1171875t-1.88671875,2.7275390625t-2.5634765625,1.927734375t-3.322265625,0.7177734375q-2.70703125,0-4.552734375-1.55859375t-2.9736328125-3.8349609375t-1.640625-4.8603515625t-0.5126953125-4.798828125z M65.35365234375,95.126953125q0,1.517578125,0.205078125,3.19921875t0.6767578125,3.322265625t1.2099609375,3.0966796875t1.845703125,2.5634765625q2.009765625-2.173828125,2.9736328125-5.291015625t1.72265625-6.0087890625t1.72265625-4.962890625t2.9736328125-2.0712890625q1.271484375,0,2.1328125,0.451171875q-0.41015625-1.025390625-1.353515625-1.9892578125t-2.1123046875-1.763671875t-2.419921875-1.3125t-2.3583984375-0.5126953125q-0.328125,0-0.7587890625,0.1025390625t-0.6767578125,0.0205078125q-1.681640625,0.4921875-2.7685546875,1.7021484375t-1.763671875,2.8505859375t-0.9638671875,3.36328125t-0.287109375,3.240234375z M93.3948046875,69.65625q0-0.57421875,1.23046875-0.984375t2.7890625-0.6767578125t3.0146484375-0.3896484375t1.9892578125-0.205078125q0-1.107421875,0.08203125-2.2353515625t0.451171875-2.009765625t1.1689453125-1.4150390625t2.2353515625-0.533203125q1.189453125,0,1.8046875,0.287109375t1.3125,1.189453125q0.1640625,0.4921875,0.1640625,0.943359375l0,1.3740234375t-0.08203125,1.4150390625q1.517578125-0.1640625,3.0146484375-0.3896484375t3.0146484375-0.2255859375q1.107421875,0,1.517578125,0.041015625t0.8203125,0.984375q0.328125,0.943359375-0.7998046875,1.435546875t-2.70703125,0.73828125t-3.1376953125,0.369140625t-1.88671875,0.123046875q-0.4921875,7.0546875-1.0048828125,13.986328125t-0.5126953125,14.068359375q0,3.19921875,0.205078125,6.603515625t1.1484375,6.439453125q0.24609375,0.943359375,0.8203125,1.763671875t0.57421875,1.763671875q0,0.57421875-0.451171875,0.90234375t-1.0869140625,0.5537109375t-1.271484375,0.2666015625t-1.0458984375,0.041015625q-2.583984375,0-3.9375-1.927734375t-1.9482421875-4.6142578125t-0.6357421875-5.5166015625t-0.041015625-4.59375q0-3.609375,0.1435546875-7.3828125t0.3486328125-7.46484375t0.57421875-7.21875t0.861328125-6.5625q-1.435546875,0.1640625-2.8095703125,0.369140625t-2.8095703125,0.205078125q-0.328125,0-0.8818359375-0.041015625t-1.0458984375-0.205078125t-0.8408203125-0.451171875t-0.3486328125-0.8203125z M124.75822265625,95.701171875q0-2.7890625,0.7587890625-5.373046875t2.2763671875-4.6142578125t3.7939453125-3.240234375t5.2705078125-1.2099609375q1.845703125,0,4.0810546875,0.5537109375t4.2041015625,1.640625t3.28125,2.7685546875t1.3125,3.85546875q0,1.025390625-0.3486328125,1.55859375t-1.4150390625,0.533203125l-0.451171875-0.08203125q1.189453125,3.19921875,2.05078125,6.5625t1.681640625,6.7265625q0.328125,0.65625,0.4921875,1.1689453125t0.1640625,1.0048828125q0,0.65625-0.369140625,1.0869140625t-0.9638671875,0.6357421875t-1.23046875,0.287109375t-1.1279296875,0.08203125q-1.763671875,0-2.6455078125-0.615234375t-1.271484375-1.681640625t-0.4716796875-2.3994140625t-0.328125-2.6865234375q-0.4921875,1.599609375-1.2919921875,3.1171875t-1.88671875,2.7275390625t-2.5634765625,1.927734375t-3.322265625,0.7177734375q-2.70703125,0-4.552734375-1.55859375t-2.9736328125-3.8349609375t-1.640625-4.8603515625t-0.5126953125-4.798828125z M130.58244140625,95.126953125q0,1.517578125,0.205078125,3.19921875t0.6767578125,3.322265625t1.2099609375,3.0966796875t1.845703125,2.5634765625q2.009765625-2.173828125,2.9736328125-5.291015625t1.72265625-6.0087890625t1.72265625-4.962890625t2.9736328125-2.0712890625q1.271484375,0,2.1328125,0.451171875q-0.41015625-1.025390625-1.353515625-1.9892578125t-2.1123046875-1.763671875t-2.419921875-1.3125t-2.3583984375-0.5126953125q-0.328125,0-0.7587890625,0.1025390625t-0.6767578125,0.0205078125q-1.681640625,0.4921875-2.7685546875,1.7021484375t-1.763671875,2.8505859375t-0.9638671875,3.36328125t-0.287109375,3.240234375z M176.28779296875,85.201171875q0-7.0546875,0.3896484375-13.9453125t0.9638671875-13.9453125q0.1640625-1.845703125,0.205078125-3.568359375t0.3896484375-3.0146484375t1.23046875-2.05078125t2.7275390625-0.7587890625q1.189453125,0,2.4814453125,0.41015625t1.2919921875,1.927734375q0,5.701171875-0.4716796875,11.2177734375t-0.6357421875,10.9716796875q4.470703125-5.044921875,9.556640625-9.4130859375t10.787109375-8.6337890625q0.8203125-0.57421875,2.091796875-0.615234375q0.41015625,0,0.7177734375,0.041015625t0.6357421875,0.123046875q0.41015625,0.1640625,0.8408203125,0.3896484375t0.4306640625,0.6357421875q0,0.328125-0.369140625,0.57421875q-4.265625,3.4453125-8.4287109375,7.013671875t-7.9365234375,7.62890625q0.4921875,0.943359375,0.8408203125,1.763671875t0.7587890625,1.763671875q3.4453125,8.162109375,5.8857421875,16.7138671875t5.1884765625,16.9599609375q0.24609375,0.943359375,0.7177734375,1.9482421875t0.8818359375,2.009765625t0.7177734375,1.88671875t0.3076171875,1.4560546875q0,0.73828125-0.4716796875,1.1689453125t-1.0869140625,0.6767578125t-1.3330078125,0.328125t-1.3330078125,0.08203125q-1.435546875,0-2.5634765625-0.41015625t-1.7841796875-1.845703125q-3.03515625-9.6796875-5.8447265625-19.359375t-5.6806640625-19.5234375q-0.943359375,0.943359375-1.88671875,2.3583984375t-1.72265625,2.6044921875q0,6.15234375,0.287109375,12.22265625t0.984375,12.22265625q0.1640625,1.763671875,0.5537109375,3.52734375t0.3896484375,3.609375q0,1.353515625-1.39453125,1.88671875t-3.076171875,0.533203125q-1.845703125,0-2.7685546875-0.369140625t-1.3125-0.9638671875t-0.4716796875-1.3125t-0.24609375-1.3740234375q-0.943359375-6.48046875-1.189453125-12.8173828125t-0.24609375-12.7353515625z M217.4949609375,96.48046875q0-2.337890625,0.5947265625-4.8193359375t1.88671875-4.470703125t3.2607421875-3.240234375t4.7578125-1.2509765625q2.091796875,0,4.4091796875,0.7177734375t4.2451171875,2.05078125t3.1376953125,3.2607421875t1.2099609375,4.306640625q0,2.87109375-1.0458984375,5.455078125t-2.9326171875,4.6142578125t-4.4091796875,3.19921875t-5.4755859375,1.1689453125q-2.419921875,0-4.224609375-0.8818359375t-3.0146484375-2.3583984375t-1.8046875-3.486328125t-0.5947265625-4.265625z M223.5242578125,96.3984375q0,0.73828125,0.2255859375,2.173828125t0.6767578125,2.8095703125t1.1689453125,2.37890625t1.7431640625,0.9228515625q2.173828125-0.24609375,3.5888671875-1.4150390625t2.296875-2.8505859375t1.23046875-3.650390625t0.3486328125-3.732421875q0-2.255859375-0.8818359375-3.7734375t-2.8916015625-2.4609375q0,0.08203125,0.08203125,0.08203125t0.08203125-0.08203125l-1.025390625-0.24609375q-0.41015625-0.1640625-1.0048828125-0.369140625t-1.1689453125-0.90234375q-1.599609375,0.57421875-2.4814453125,1.4765625t-1.3330078125,2.1943359375t-0.5537109375,3.0966796875t-0.1025390625,4.34765625z M248.57126953125,78.556640625q0-0.41015625,0.6357421875-0.697265625t1.517578125-0.41015625t1.681640625-0.205078125t1.2099609375-0.08203125q0.1640625-1.107421875,0.4716796875-2.994140625t0.7587890625-4.0400390625t1.1279296875-4.3271484375t1.640625-3.9375t2.2763671875-2.8916015625t3.076171875-1.1279296875l-0.08203125,0q0.57421875-0.08203125,1.1279296875-0.123046875t1.1279296875-0.041015625q1.353515625,0,2.9326171875,0.533203125t2.9326171875,1.4970703125t2.2763671875,2.3173828125t0.9228515625,2.87109375q0,1.189453125-0.5947265625,2.5634765625t-2.0712890625,1.3740234375q-0.4921875,0-1.0048828125-0.24609375t-0.9638671875-0.533203125q0.1640625-0.943359375,0.1640625-1.88671875q0-0.4921875-0.041015625-0.943359375q-0.123046875-1.435546875-0.615234375-2.5224609375t-1.4150390625-1.72265625t-2.1943359375-0.4716796875q-1.681640625,0.24609375-2.5224609375,2.05078125t-1.1689453125,4.2861328125t-0.41015625,5.044921875t-0.328125,4.1630859375q1.927734375,0.1640625,3.2607421875,0.1640625l3.3427734375,0q0.328125,0,1.1279296875,0.041015625t1.55859375,0.1640625t1.353515625,0.4306640625t0.5947265625,0.7998046875q0,0.41015625-0.328125,0.7177734375t-0.7998046875,0.4306640625t-0.984375,0.1640625t-0.8408203125,0.041015625q-1.435546875,0-2.4404296875-0.123046875t-1.927734375-0.2255859375t-1.927734375-0.1025390625t-2.3583984375,0.287109375q-0.41015625,4.552734375-0.65625,9.0234375t-0.24609375,9.0234375q0,7.13671875,0.451171875,13.986328125t1.640625,13.904296875q0.1640625,0.65625,0.287109375,1.4970703125t0.123046875,1.6201171875q0,0.73828125-0.451171875,1.2099609375t-1.1279296875,0.6767578125t-1.39453125,0.287109375t-1.2919921875,0.08203125q-2.337890625,0-3.28125-0.7177734375t-1.353515625-2.8916015625q-1.025390625-5.783203125-1.3125-11.6689453125t-0.287109375-11.8740234375q0-5.865234375,0.4306640625-11.7099609375t1.0869140625-11.6279296875q-0.328125,0-1.1279296875,0.041015625t-1.599609375,0t-1.39453125-0.287109375t-0.5947265625-0.861328125z M278.827265625,78.556640625q0-0.41015625,0.6357421875-0.697265625t1.517578125-0.41015625t1.681640625-0.205078125t1.2099609375-0.08203125q0.1640625-1.107421875,0.4716796875-2.994140625t0.7587890625-4.0400390625t1.1279296875-4.3271484375t1.640625-3.9375t2.2763671875-2.8916015625t3.076171875-1.1279296875l-0.08203125,0q0.57421875-0.08203125,1.1279296875-0.123046875t1.1279296875-0.041015625q1.353515625,0,2.9326171875,0.533203125t2.9326171875,1.4970703125t2.2763671875,2.3173828125t0.9228515625,2.87109375q0,1.189453125-0.5947265625,2.5634765625t-2.0712890625,1.3740234375q-0.4921875,0-1.0048828125-0.24609375t-0.9638671875-0.533203125q0.1640625-0.943359375,0.1640625-1.88671875q0-0.4921875-0.041015625-0.943359375q-0.123046875-1.435546875-0.615234375-2.5224609375t-1.4150390625-1.72265625t-2.1943359375-0.4716796875q-1.681640625,0.24609375-2.5224609375,2.05078125t-1.1689453125,4.2861328125t-0.41015625,5.044921875t-0.328125,4.1630859375q1.927734375,0.1640625,3.2607421875,0.1640625l3.3427734375,0q0.328125,0,1.1279296875,0.041015625t1.55859375,0.1640625t1.353515625,0.4306640625t0.5947265625,0.7998046875q0,0.41015625-0.328125,0.7177734375t-0.7998046875,0.4306640625t-0.984375,0.1640625t-0.8408203125,0.041015625q-1.435546875,0-2.4404296875-0.123046875t-1.927734375-0.2255859375t-1.927734375-0.1025390625t-2.3583984375,0.287109375q-0.41015625,4.552734375-0.65625,9.0234375t-0.24609375,9.0234375q0,7.13671875,0.451171875,13.986328125t1.640625,13.904296875q0.1640625,0.65625,0.287109375,1.4970703125t0.123046875,1.6201171875q0,0.73828125-0.451171875,1.2099609375t-1.1279296875,0.6767578125t-1.39453125,0.287109375t-1.2919921875,0.08203125q-2.337890625,0-3.28125-0.7177734375t-1.353515625-2.8916015625q-1.025390625-5.783203125-1.3125-11.6689453125t-0.287109375-11.8740234375q0-5.865234375,0.4306640625-11.7099609375t1.0869140625-11.6279296875q-0.328125,0-1.1279296875,0.041015625t-1.599609375,0t-1.39453125-0.287109375t-0.5947265625-0.861328125z M309.08326171875,97.3828125q0-2.87109375,0.6357421875-6.767578125t2.1533203125-7.3828125t3.9990234375-5.9267578125t6.2548828125-2.4404296875q3.52734375,0,5.291015625,2.0302734375t1.763671875,5.4755859375q0,2.255859375-0.8408203125,4.9423828125t-2.3994140625,5.0859375t-3.69140625,3.9990234375t-4.7578125,1.599609375l-1.06640625-0.08203125q0,1.107421875,0.328125,2.9736328125t0.9638671875,3.7119140625t1.640625,3.240234375t2.4404296875,1.39453125q2.091796875,0,4.01953125-1.681640625t3.650390625-3.732421875t3.19921875-3.732421875t2.70703125-1.681640625q0.65625,0,1.353515625,0.205078125t0.779296875,1.1484375q0,0.57421875-0.3076171875,0.943359375t-0.5537109375,0.8203125q-1.271484375,2.173828125-2.7685546875,4.142578125t-3.3837890625,3.568359375t-4.1220703125,2.5224609375t-4.9423828125,0.9228515625q-3.52734375,0-5.865234375-1.2509765625t-3.7734375-3.36328125t-2.0712890625-4.880859375t-0.6357421875-5.8037109375z M316.42505859375,94.265625l1.1484375,1.025390625q0.8203125,0.73828125,1.640625,0.328125t1.4765625-1.4970703125t1.2099609375-2.6865234375t0.984375-3.28125t0.6357421875-3.28125t0.205078125-2.666015625l0-1.39453125t-0.123046875-1.4765625t-0.4306640625-1.1689453125t-0.9638671875-0.5947265625q-0.205078125-0.041015625-0.369140625-0.041015625q-1.39453125,0-2.37890625,1.763671875q-1.06640625,1.96875-1.72265625,4.7783203125t-0.943359375,5.7626953125t-0.369140625,4.4296875z M343.3587890625,97.3828125q0-2.87109375,0.6357421875-6.767578125t2.1533203125-7.3828125t3.9990234375-5.9267578125t6.2548828125-2.4404296875q3.52734375,0,5.291015625,2.0302734375t1.763671875,5.4755859375q0,2.255859375-0.8408203125,4.9423828125t-2.3994140625,5.0859375t-3.69140625,3.9990234375t-4.7578125,1.599609375l-1.06640625-0.08203125q0,1.107421875,0.328125,2.9736328125t0.9638671875,3.7119140625t1.640625,3.240234375t2.4404296875,1.39453125q2.091796875,0,4.01953125-1.681640625t3.650390625-3.732421875t3.19921875-3.732421875t2.70703125-1.681640625q0.65625,0,1.353515625,0.205078125t0.779296875,1.1484375q0,0.57421875-0.3076171875,0.943359375t-0.5537109375,0.8203125q-1.271484375,2.173828125-2.7685546875,4.142578125t-3.3837890625,3.568359375t-4.1220703125,2.5224609375t-4.9423828125,0.9228515625q-3.52734375,0-5.865234375-1.2509765625t-3.7734375-3.36328125t-2.0712890625-4.880859375t-0.6357421875-5.8037109375z M350.7005859375,94.265625l1.1484375,1.025390625q0.8203125,0.73828125,1.640625,0.328125t1.4765625-1.4970703125t1.2099609375-2.6865234375t0.984375-3.28125t0.6357421875-3.28125t0.205078125-2.666015625l0-1.39453125t-0.123046875-1.4765625t-0.4306640625-1.1689453125t-0.9638671875-0.5947265625q-0.205078125-0.041015625-0.369140625-0.041015625q-1.39453125,0-2.37890625,1.763671875q-1.06640625,1.96875-1.72265625,4.7783203125t-0.943359375,5.7626953125t-0.369140625,4.4296875z"/><path fill="#" d=""/></svg>
